<svg width="199" height="20" viewBox="0 0 199 20" fill="none" xmlns="http://www.w3.org/2000/svg">
<path d="M65.111 18.7507H60.6625L52.0815 2.68258V18.7507H49.4805V0.980957H53.929L62.5343 17.0491V0.980957H65.111V18.7507Z" fill="white"/>
<path d="M77.925 14.2783C77.4632 15.9799 76.1505 16.8458 73.8898 16.8458C71.1429 16.8458 69.7573 15.2506 69.6843 12.8441H80.2101V12.0419C80.2101 8.2497 77.6576 6.0376 73.7196 6.0376C69.9274 6.0376 67.375 8.27401 67.375 12.2607C67.375 15.8827 69.5628 18.7997 73.8898 18.7997C77.9737 18.7997 79.6753 16.539 80.2101 14.254H77.925V14.2783ZM73.7439 7.9823C76.0532 7.9823 77.4632 9.07621 77.7063 10.9723H69.9274C70.1705 9.10052 71.5804 7.9823 73.7439 7.9823Z" fill="white"/>
<path d="M87.0158 19.017C84.0258 19.017 82.3242 17.0723 82.3242 13.669V6.1333H84.9009V13.4503C84.9009 15.8082 85.7275 16.7806 87.7451 16.7806C90.3218 16.7806 91.9019 14.7629 91.9019 11.5299V6.1333H94.43V18.7739H91.9019V16.1972C91.0268 18.0203 89.3252 19.017 87.0158 19.017Z" fill="white"/>
<path d="M99.779 18.7509H97.2266V8.00644C97.2266 6.76669 97.8586 6.11035 99.147 6.11035H106.269V8.34676H99.8033V18.7509H99.779Z" fill="white"/>
<path d="M112.271 19.0178C108.722 19.0178 106.34 16.3681 106.34 12.4301C106.34 8.51636 108.722 5.8667 112.271 5.8667C114.556 5.8667 116.355 6.81474 117.376 8.56497V6.10979H119.904V18.7504H117.376V16.2952C116.355 18.0454 114.581 19.0178 112.271 19.0178ZM113 8.12742C110.448 8.12742 108.917 9.7318 108.917 12.4301C108.917 15.1527 110.448 16.7571 113 16.7571C116.185 16.7571 117.303 14.4234 117.303 12.4301C117.303 9.24563 114.994 8.12742 113 8.12742Z" fill="white"/>
<path d="M146.546 18.7507H142.268L142.244 18.6049L138.889 2.87704L135.534 18.7507H131.208L127.707 0.980957H130.308L130.332 1.12681L133.42 16.1983L133.517 16.6845L136.823 0.980957H140.98L144.31 16.6845L144.383 16.1983L147.446 0.980957H150.071L146.546 18.7507Z" fill="white"/>
<path d="M156.854 19.0178C152.916 19.0178 150.145 16.3195 150.145 12.4301C150.145 8.56498 152.891 5.8667 156.854 5.8667C160.792 5.8667 163.539 8.56498 163.539 12.4301C163.539 16.2952 160.792 19.0178 156.854 19.0178ZM156.854 8.12742C153.985 8.12742 152.697 10.2909 152.697 12.4301C152.697 15.0554 154.326 16.7571 156.854 16.7571C159.722 16.7571 160.986 14.5693 160.986 12.4301C160.986 10.2909 159.722 8.12742 156.854 8.12742Z" fill="white"/>
<path d="M168.182 18.7509H165.605V8.00644C165.605 6.76669 166.238 6.11035 167.526 6.11035H174.648V8.34676H168.182V18.7509Z" fill="white"/>
<path d="M187.604 18.7507H184.37L179.63 13.2812H178.658V18.7507H176.105V0.980957H178.658V11.1664H179.727L184.419 6.13443H187.652L181.867 12.2846L187.604 18.7507Z" fill="white"/>
<path d="M193.78 19.0191C189.988 19.0191 187.824 17.2203 187.824 14.0601V13.8657H190.377V14.0601C190.377 16.4181 192.248 16.9043 193.804 16.9043C195.481 16.9043 196.235 16.3938 196.235 15.2756C196.235 14.6435 195.943 14.1331 194.558 13.7684L191.276 12.7961C189.915 12.4071 188.31 11.5077 188.31 9.39284C188.31 7.18074 190.134 5.84375 193.196 5.84375C196.527 5.84375 198.52 7.44813 198.52 10.1464V10.3409H195.968V10.1464C195.968 8.66357 195.044 7.91 193.245 7.91C192.37 7.91 190.887 8.10447 190.887 9.36853C190.887 10.0735 191.373 10.4867 192.516 10.8271L195.384 11.6536C197.742 12.3342 198.86 13.501 198.86 15.3242C198.812 17.7065 197.013 19.0191 193.78 19.0191Z" fill="white"/>
<path d="M125.689 18.7507H123.137V0.980957H125.689V18.7507Z" fill="white"/>
<path d="M0 16.8374H20.5971H24.342L12.4507 3.78336C11.9744 3.26043 11.2997 2.9624 10.5924 2.9624H0V16.8374Z" fill="white"/>
<path d="M24.3438 16.8374H32.289H36.0279V2.9624H24.3438V16.8374Z" fill="white"/>
</svg>
